# xmcd CD database file
#
# Track frame offsets:
#	150
#	16200
#	36143
#	50563
#	77238
#	97595
#	119638
#	137313
#	160618
#	179730
#
# Disc length: 2610 seconds
#
# Revision: 1
# Processed by: cddbd v1.5.2PL0 Copyright (c) Steve Scherf et al.
# Submitted via: CDex 1.70beta2
#
DISCID=760a300a
DTITLE=張國榮 - 拒絕再玩
DYEAR=1989
DGENRE=Pop
TTITLE0=拒絕再玩
TTITLE1=共同渡過
TTITLE2=無心睡眠
TTITLE3=失散的影子
TTITLE4=到未來日子
TTITLE5=為妳
TTITLE6=野火
TTITLE7=驚夢
TTITLE8=找一個地方
TTITLE9=倩女幽魂
EXTD=YEAR: 1989
EXTT0=
EXTT1=
EXTT2=
EXTT3=
EXTT4=
EXTT5=
EXTT6=
EXTT7=
EXTT8=
EXTT9=
PLAYORDER=
